<?xml version="1.0" encoding="UTF-8" standalone="no"?>
<!-- Created with Inkscape (http://www.inkscape.org/) -->

<svg
   width="428.47638"
   height="170.88216"
   viewBox="0 0 113.3677 45.212574"
   version="1.1"
   id="svg5"
   inkscape:version="1.1 (c68e22c387, 2021-05-23)"
   sodipodi:docname="logo-mobile.svg"
   xmlns:inkscape="http://www.inkscape.org/namespaces/inkscape"
   xmlns:sodipodi="http://sodipodi.sourceforge.net/DTD/sodipodi-0.dtd"
   xmlns="http://www.w3.org/2000/svg"
   xmlns:svg="http://www.w3.org/2000/svg">
  <sodipodi:namedview
     id="namedview7"
     pagecolor="#ffffff"
     bordercolor="#666666"
     borderopacity="1.0"
     inkscape:pageshadow="2"
     inkscape:pageopacity="0.0"
     inkscape:pagecheckerboard="0"
     inkscape:document-units="mm"
     showgrid="false"
     units="px"
     inkscape:zoom="0.73406285"
     inkscape:cx="320.13608"
     inkscape:cy="109.66363"
     inkscape:window-width="1920"
     inkscape:window-height="1013"
     inkscape:window-x="-9"
     inkscape:window-y="-9"
     inkscape:window-maximized="1"
     inkscape:current-layer="layer3"
     fit-margin-top="0"
     fit-margin-left="0"
     fit-margin-right="0"
     fit-margin-bottom="0" />
  <defs
     id="defs2" />
  <g
     inkscape:label="Layer 1"
     inkscape:groupmode="layer"
     id="layer1"
     style="display:none"
     transform="translate(-17.675976,-86.276424)">
    <g
       id="tight-bounds"
       transform="matrix(0.9294287,0,0,0.9294287,146.72772,91.916526)">
      <svg
         viewBox="0 0 395.52 46.930353"
         height="46.930355"
         width="395.51999"
         version="1.1"
         id="svg894">
        <g
           id="g890">
          <svg
             viewBox="0 0 444.3069 52.719154"
             height="46.930355"
             width="395.51999"
             version="1.1"
             id="svg888">
            <g
               transform="translate(48.786899,16.290984)"
               id="g839">
              <svg
                 viewBox="0 0 395.52 20.137186"
                 height="20.137186"
                 width="395.51999"
                 version="1.1"
                 id="svg837">
                <g
                   id="g835">
                  <svg
                     viewBox="0 0 395.52 20.137186"
                     height="20.137186"
                     width="395.51999"
                     version="1.1"
                     id="svg833">
                    <g
                       id="g831">
                      <svg
                         viewBox="0 0 395.52 20.137186"
                         height="20.137186"
                         width="395.51999"
                         version="1.1"
                         id="svg829">
                        <g
                           id="g827">
                          <svg
                             width="395.51999"
                             viewBox="2.1500001 -35.5 708.98999 36.099998"
                             height="20.137186"
                             data-palette-color="#000000"
                             version="1.1"
                             id="svg825" />
                        </g>
                      </svg>
                    </g>
                  </svg>
                </g>
              </svg>
            </g>
            <g
               id="g886">
              <svg
                 viewBox="0 0 44.032993 52.719154"
                 height="52.719154"
                 width="44.032993"
                 version="1.1"
                 id="svg884">
                <g
                   id="g882">
                  <svg
                     version="1.1"
                     x="0"
                     y="0"
                     viewBox="9 2 81.017998 97"
                     enable-background="new 0 0 100 100"
                     xml:space="preserve"
                     height="52.719154"
                     width="44.032993"
                     class="icon-icon-0"
                     data-fill-palette-color="accent"
                     id="icon-0"><path
                       d="M 48.896,6.015 C 48.926,5.985 49,5.945 49,5.9 V 2.163 C 49,2.073 49.09,2 49,2 48.91,2 49,2.073 49,2.163 V 5.9 c 0,0.061 -0.18,0.104 -0.13,0.132 0.023,0.013 -0.036,0.031 -0.007,0.031 0.045,0 0.004,-0.019 0.033,-0.048 z"
                       fill="#000000"
                       data-fill-palette-color="accent"
                       id="path877" /></svg>
                </g>
              </svg>
            </g>
          </svg>
        </g>
        <defs
           id="defs892" />
      </svg>
      <rect
         width="395.51999"
         height="46.930355"
         fill="none"
         stroke="none"
         visibility="hidden"
         id="rect896"
         x="0"
         y="0" />
    </g>
  </g>
  <g
     inkscape:groupmode="layer"
     id="layer4"
     inkscape:label="Layer 3"
     style="display:inline"
     transform="translate(-17.675976,-86.276424)" />
  <g
     inkscape:groupmode="layer"
     id="layer3"
     inkscape:label="Layer 2"
     style="display:inline"
     transform="translate(-17.675976,-86.276424)">
    <g
       id="g2313"
       transform="matrix(0.42937381,0,0,0.42937381,13.013049,62.131326)">
      <g
         id="g2094"
         transform="matrix(1.9420288,0,0,1.9420288,-177.45019,-122.27126)"
         style="display:inline">
        <g
           id="g2052">
          <rect
             x="11"
             y="93"
             width="79"
             height="6"
             fill="#000000"
             data-fill-palette-color="accent"
             id="rect841"
             style="display:inline"
             transform="matrix(0.44967443,0,0,0.44967443,142.68065,91.017177)" />
          <rect
             x="18"
             y="49"
             width="9"
             height="38"
             fill="#000000"
             data-fill-palette-color="accent"
             id="rect843"
             style="display:inline"
             transform="matrix(0.44967443,0,0,0.44967443,142.68065,91.017177)" />
          <rect
             x="31"
             y="49"
             width="8"
             height="38"
             fill="#000000"
             data-fill-palette-color="accent"
             id="rect847"
             style="display:inline"
             transform="matrix(0.44967443,0,0,0.44967443,142.68065,91.017177)" />
          <rect
             x="45"
             y="49"
             width="9"
             height="38"
             fill="#000000"
             data-fill-palette-color="accent"
             id="rect849"
             style="display:inline"
             transform="matrix(0.44967443,0,0,0.44967443,142.68065,91.017177)" />
          <rect
             x="59"
             y="49"
             width="9"
             height="38"
             fill="#000000"
             data-fill-palette-color="accent"
             id="rect851"
             style="display:inline"
             transform="matrix(0.44967443,0,0,0.44967443,142.68065,91.017177)" />
          <rect
             x="73"
             y="49"
             width="8"
             height="38"
             fill="#000000"
             data-fill-palette-color="accent"
             id="rect853"
             style="display:inline"
             transform="matrix(0.44967443,0,0,0.44967443,142.68065,91.017177)" />
          <polygon
             points="90.018,41 49.508,30.584 9,41 "
             fill="#000000"
             data-fill-palette-color="accent"
             id="polygon855"
             style="display:inline"
             transform="matrix(0.44967443,0,0,0.44967443,142.68065,91.017177)" />
          <rect
             x="13"
             y="88"
             width="74"
             height="3"
             fill="#000000"
             data-fill-palette-color="accent"
             id="rect857"
             style="display:inline"
             transform="matrix(0.44967443,0,0,0.44967443,142.68065,91.017177)" />
          <path
             d="m 39.912,23.395 c 0.197,-3.475 1.044,-6.7 2.246,-9.117 0.427,-0.857 1.166,-1.709 1.057,-2.246 -0.17,0.076 -0.506,-0.101 -0.66,0 -3.254,2.124 -5.756,6.442 -6.21,11.23 0.938,0.295 2.413,0.054 3.567,0.133 z"
             fill="#000000"
             data-fill-palette-color="accent"
             id="path859"
             style="display:inline"
             transform="matrix(0.44967443,0,0,0.44967443,142.68065,91.017177)" />
          <path
             d="m 40.572,23 c 1.277,0 2.555,0 3.832,0 0.205,-4 0.533,-8 1.718,-11 -0.616,0 -1.233,0 -1.85,0 -2.246,3 -3.584,7 -3.7,11 z"
             fill="#000000"
             data-fill-palette-color="accent"
             id="path861"
             style="display:inline"
             transform="matrix(0.44967443,0,0,0.44967443,142.68065,91.017177)" />
          <path
             d="m 49.293,12 c -0.793,0 -1.586,0 -2.379,0 -1.471,3 -1.781,7 -1.85,11 1.366,0 2.73,0 4.096,0 0.307,-3 0.045,-7 0.133,-11 z"
             fill="#000000"
             data-fill-palette-color="accent"
             id="path863"
             style="display:inline"
             transform="matrix(0.44967443,0,0,0.44967443,142.68065,91.017177)" />
          <path
             d="m 49.953,23.379 c 1.33,-0.08 2.984,0.158 4.096,-0.141 C 53.961,19.01 53.51,15 52.332,12 c -0.838,0 -1.674,0 -2.512,0 0.088,4 -0.174,7.854 0.133,11.379 z"
             fill="#000000"
             data-fill-palette-color="accent"
             id="path865"
             style="display:inline"
             transform="matrix(0.44967443,0,0,0.44967443,142.68065,91.017177)" />
          <path
             d="m 58.541,23 c -0.197,-4 -1.582,-8 -3.566,-11 -0.662,0 -1.322,0 -1.982,0 1.131,3 1.473,7 1.719,11 1.274,0 2.552,0 3.829,0 z"
             fill="#000000"
             data-fill-palette-color="accent"
             id="path867"
             style="display:inline"
             transform="matrix(0.44967443,0,0,0.44967443,142.68065,91.017177)" />
          <path
             d="m 62.637,23 c -0.076,-2 -0.998,-4.827 -2.113,-6.673 -1.078,-1.784 -2.6,-3.672 -4.625,-4.394 -0.102,0.03 -0.26,-0.144 -0.264,-0.016 2.086,2.846 3.178,7.083 3.566,11.083 1.147,0 2.291,0 3.436,0 z"
             fill="#000000"
             data-fill-palette-color="accent"
             id="path869"
             style="display:inline"
             transform="matrix(0.44967443,0,0,0.44967443,142.68065,91.017177)" />
          <path
             d="M 63.693,24.179 C 61.951,23.586 58.777,24 56.561,24 c -7.123,0 -15.018,0 -21.404,0 -0.494,1 -1.239,1 -1.453,3 10.569,0 21.139,0 31.709,0 -0.45,-1 -0.825,-2.518 -1.72,-2.821 z"
             fill="#000000"
             data-fill-palette-color="accent"
             id="path871"
             style="display:inline"
             transform="matrix(0.44967443,0,0,0.44967443,142.68065,91.017177)" />
          <path
             d="M 33,34 C 37.249,33.141 48.332,29.601 49.557,29.604 50.775,29.608 61.813,33.166 66,34 66.43,32.584 65.605,30.966 65.412,29.954 65.252,29.115 65.525,28 65.412,27 54.887,27 44.36,27 33.834,27 33.681,27 33.691,27.256 33.703,27.443 34.172,30.026 32.699,31.585 33,34 Z"
             fill="#000000"
             data-fill-palette-color="accent"
             id="path873"
             style="display:inline"
             transform="matrix(0.44967443,0,0,0.44967443,142.68065,91.017177)" />
          <path
             d="m 49,6 c -0.055,0 -0.106,0.012 -0.16,0.015 -0.029,0.029 -0.07,0.048 -0.115,0.048 -0.028,0 -0.05,-0.018 -0.073,-0.031 C 45.501,6.362 43,11 43,11 h 12 c 0,0 -2.687,-5 -6,-5 z"
             fill="#000000"
             data-fill-palette-color="accent"
             id="path875"
             style="display:inline"
             transform="matrix(0.44967443,0,0,0.44967443,142.68065,91.017177)" />
          <path
             d="m 50.315,3.33 c 0.2,0.078 0.388,0.15 0.685,0.031 V 2.136 C 50.715,2.26 50.551,2.197 50.345,2.117 50.203,2.063 50.042,2 49.821,2 49.45,2 49.173,2.18 49.05,2.277 v 1.244 c 0.059,-0.054 0.355,-0.302 0.771,-0.302 0.206,0 0.353,0.056 0.494,0.111 z"
             fill="#000000"
             data-fill-palette-color="accent"
             id="path879"
             style="display:inline"
             transform="matrix(0.44967443,0,0,0.44967443,142.68065,91.017177)" />
        </g>
        <rect
           x="10"
           y="42"
           width="79"
           height="6"
           fill="#000000"
           data-fill-palette-color="accent"
           id="rect845"
           style="display:inline"
           transform="matrix(0.44967443,0,0,0.44967443,142.68065,91.017177)" />
      </g>
      <path
         d="m 17.321029,161.53214 v 0 q -1.377893,0 -2.346141,-0.29048 -0.968249,-0.28675 -1.582716,-0.91984 -0.614467,-0.63309 -0.893775,-1.61996 -0.279296,-0.98687 -0.279296,-2.38338 v 0 -7.00118 H 10.85983 v -1.00549 h 4.934347 v 1.00549 h -1.359271 v 7.18738 q 0,0.96826 0.160128,1.67582 0.15641,0.70757 0.510191,1.18053 0.353781,0.47667 0.938456,0.70756 0.588395,0.23461 1.463549,0.23461 v 0 q 1.750295,0 2.469028,-0.92355 0.715025,-0.91984 0.715025,-2.85635 v 0 -7.206 h -1.359272 v -1.00549 h 3.928857 v 1.00549 h -1.359284 v 6.88946 q 0,1.34065 -0.249504,2.33498 -0.253236,0.99804 -0.793218,1.66837 -0.539982,0.67032 -1.415135,0.99431 -0.875154,0.32772 -2.122698,0.32772 z m 7.615649,-0.22345 v -1.00549 h 1.359272 v -10.9859 h -1.359272 v -1.00549 h 3.947478 l 6.274998,9.92456 h 0.09311 v -8.91907 h -1.359272 v -1.00549 h 3.928857 v 1.00549 h -1.359272 v 11.99139 H 34.581942 L 27.59937,150.26693 h -0.09311 v 10.03627 h 1.359272 v 1.00549 z m 14.598221,0 v -1.00549 h 1.359272 v -10.9859 h -1.359272 v -1.00549 h 4.934335 v 1.00549 h -1.359271 v 10.9859 h 1.359271 v 1.00549 z m 11.131128,0 -3.966087,-11.99139 h -0.968249 v -1.00549 h 4.841242 v 1.00549 h -1.601337 l 1.82478,5.67915 1.32203,4.43161 h 0.09311 l 1.322041,-4.43161 1.824769,-5.67915 h -1.601325 v -1.00549 h 3.872993 v 1.00549 h -0.968248 l -3.9661,11.99139 z m 8.230116,0 v -1.00549 h 1.359272 v -10.9859 h -1.359272 v -1.00549 h 9.94318 v 3.27716 H 67.14488 v -2.17856 h -4.673661 v 4.61779 h 3.16543 v -1.32203 h 1.228935 v 3.74266 h -1.228935 v -1.32203 h -3.16543 v 5.08331 h 4.859862 v -2.42063 h 1.694443 v 3.51921 z m 12.084499,0 v -1.00549 h 1.359272 v -10.9859 h -1.359272 v -1.00549 H 77.5908 q 0.856532,0 1.552924,0.20482 0.700123,0.20482 1.191692,0.62192 0.4953,0.42081 0.763426,1.06134 0.271856,0.64426 0.271856,1.50079 v 0 q 0,1.34065 -0.774596,2.20464 -0.770877,0.86769 -2.092918,1.12837 v 0 l 2.271668,4.04058 q 0.372403,0.65171 0.80812,0.93845 0.439424,0.29048 1.091134,0.29048 v 0 h 0.130337 v 1.00549 h -1.433745 q -0.595846,0 -1.016661,-0.10426 -0.417096,-0.10055 -0.733634,-0.31654 -0.31655,-0.21227 -0.558603,-0.53998 -0.242065,-0.32399 -0.465509,-0.77088 v 0 l -2.178562,-4.1523 h -1.862011 v 4.87848 h 1.359272 v 1.00549 z m 3.575076,-11.89828 v 4.97157 h 2.476479 q 0.986869,0 1.515681,-0.5586 0.532531,-0.5586 0.532531,-1.48961 v 0 -0.87515 q 0,-0.93101 -0.532531,-1.48961 -0.528812,-0.5586 -1.515681,-0.5586 v 0 z m 14.207186,12.12173 v 0 q -1.15445,0 -1.873194,-0.39103 -0.715013,-0.39102 -0.975687,-0.931 v 0 h -0.09311 v 1.09858 h -1.694431 v -3.81714 h 1.694431 v 0.83791 q 0,0.96825 0.64054,1.50824 0.644259,0.53999 2.059382,0.53999 v 0 q 1.489621,0 2.159941,-0.61447 0.670331,-0.61447 0.670331,-1.63858 v 0 q 0,-0.91238 -0.502751,-1.40769 -0.50274,-0.49156 -1.694432,-0.78949 v 0 L 88.2043,155.70403 q -0.912384,-0.20483 -1.638579,-0.54 -0.726184,-0.33516 -1.228923,-0.81928 -0.502751,-0.48413 -0.774608,-1.13584 -0.268126,-0.65169 -0.268126,-1.52685 v 0 q 0,-0.80067 0.297917,-1.46355 0.297929,-0.65915 0.845362,-1.13583 0.551153,-0.47294 1.3332,-0.73363 0.782047,-0.26069 1.768917,-0.26069 v 0 q 1.117219,0 1.787538,0.37242 0.670331,0.3724 0.931005,0.87514 v 0 h 0.09311 v -1.02411 h 1.694434 v 3.70541 H 91.35111 v -0.8379 q 0,-0.94964 -0.644259,-1.44493 -0.64054,-0.49156 -2.018433,-0.49156 v 0 q -1.284786,0 -1.910424,0.56604 -0.621918,0.56978 -0.621918,1.44493 v 0 q 0,0.93101 0.566054,1.43375 0.569786,0.50274 1.873194,0.81929 v 0 l 0.875141,0.1862 q 1.80616,0.42827 2.793032,1.35182 0.986869,0.91984 0.986869,2.52118 v 0 q 0,0.85653 -0.309087,1.58271 -0.30538,0.72619 -0.875154,1.255 -0.566054,0.53254 -1.403968,0.83046 -0.837899,0.29793 -1.899253,0.29793 z m 6.494725,-0.22345 V 160.3032 H 96.6169 v -10.9859 h -1.359271 v -1.00549 h 4.934331 v 1.00549 h -1.359267 v 10.9859 h 1.359267 v 1.00549 z m 9.310081,0 v -1.00549 h 1.73167 v -10.89279 h -2.90474 v 2.17856 h -1.69443 v -3.27716 h 11.41417 v 3.27716 h -1.69445 v -2.17856 h -2.90474 v 10.89279 h 1.73167 v 1.00549 z m 12.7362,0 v -1.00549 h 1.63858 v -4.20815 l -3.63094,-6.77775 h -0.96825 v -1.00549 h 4.8971 v 1.00549 h -1.50823 l 2.81165,5.39986 h 0.0931 l 2.81165,-5.39986 h -1.50823 v -1.00549 h 3.81713 v 1.00549 h -0.96825 l -3.63094,6.5543 v 4.4316 h 1.63858 v 1.00549 z m 20.01296,-0.931 v 0 q 1.60134,0 2.53235,-1.07253 0.931,-1.06879 0.931,-2.98668 v 0 -3.01646 q 0,-1.91788 -0.931,-2.9904 -0.93101,-1.06879 -2.53235,-1.06879 v 0 q -1.60133,0 -2.53234,1.06879 -0.93102,1.07252 -0.93102,2.9904 v 0 3.01646 q 0,1.91789 0.93102,2.98668 0.93101,1.07253 2.53234,1.07253 z m 0,1.15445 v 0 q -1.30342,0 -2.38338,-0.45806 -1.07998,-0.45433 -1.86202,-1.31831 -0.78205,-0.8677 -1.21776,-2.11525 -0.43943,-1.24755 -0.43943,-2.83027 v 0 q 0,-1.58272 0.43943,-2.83026 0.43571,-1.24756 1.21776,-2.11526 0.78204,-0.86397 1.86202,-1.31831 1.07996,-0.45806 2.38338,-0.45806 v 0 q 1.30341,0 2.38339,0.45806 1.07996,0.45434 1.86201,1.31831 0.78205,0.8677 1.22148,2.11526 0.43572,1.24754 0.43572,2.83026 v 0 q 0,1.58272 -0.43572,2.83027 -0.43943,1.24755 -1.22148,2.11525 -0.78205,0.86398 -1.86201,1.31831 -1.07998,0.45806 -2.38339,0.45806 z m 7.76461,-0.22345 v -1.00549 h 1.35927 v -10.9859 h -1.35927 v -1.00549 h 9.94317 v 3.27716 h -1.69443 v -2.17856 h -4.67366 v 4.8971 h 3.16543 v -1.32204 h 1.22892 v 3.74266 h -1.22892 v -1.32203 h -3.16543 v 4.8971 h 1.73167 v 1.00549 z m 16.08783,0 v -1.00549 h 1.35927 v -10.9859 h -1.35927 v -1.00549 h 3.94748 l 6.275,9.92456 h 0.0931 v -8.91907 h -1.35927 v -1.00549 h 3.92886 v 1.00549 h -1.35927 v 11.99139 h -1.88063 L 163.832,150.26693 h -0.0931 v 10.03627 h 1.35927 v 1.00549 z m 14.59449,0 v -1.00549 h 1.35927 v -10.9859 h -1.35927 v -1.00549 h 9.94318 v 3.27716 h -1.69444 v -2.17856 h -4.67366 v 4.61779 h 3.16543 v -1.32203 h 1.22893 v 3.74266 h -1.22893 v -1.32203 h -3.16543 v 5.08331 h 4.85986 v -2.42063 h 1.69444 v 3.51921 z m 15.39889,0 -2.97923,-11.99139 h -0.96825 v -1.00549 h 4.82262 v 1.00549 h -1.58271 l 2.25304,9.77559 h 0.0931 l 2.75579,-10.78108 h 2.01098 l 2.75578,10.78108 h 0.0931 l 2.25304,-9.77559 h -1.58272 v -1.00549 h 3.87299 v 1.00549 H 203.992 l -2.97923,11.99139 h -2.14132 l -2.73717,-10.2411 h -0.0931 l -2.73716,10.2411 z m 19.40222,0 v -1.00549 h 1.35927 v -10.9859 h -1.35927 v -1.00549 h 4.93435 v 1.00549 h -1.36301 v 4.78539 h 5.90632 v -4.78539 h -1.35927 v -1.00549 h 4.93435 v 1.00549 h -1.35928 v 10.9859 h 1.35928 v 1.00549 h -4.93435 v -1.00549 h 1.35927 v -5.10193 h -5.90632 v 5.10193 h 1.36301 v 1.00549 z m 14.24071,0 v -1.00549 h 0.96825 l 4.13368,-11.99139 h 2.12269 l 4.13368,11.99139 h 0.96825 v 1.00549 h -4.85986 v -1.00549 h 1.60134 l -1.04274,-3.10957 h -4.7109 l -1.04273,3.10957 h 1.60133 v 1.00549 z m 5.62329,-11.24659 -2.01098,6.07018 h 4.11505 l -2.01097,-6.07018 z m 11.26521,11.24659 -3.9661,-11.99139 h -0.96825 v -1.00549 h 4.84124 v 1.00549 h -1.60134 l 1.82478,5.67915 1.32203,4.43161 h 0.0931 l 1.32203,-4.43161 1.82478,-5.67915 h -1.60134 v -1.00549 h 3.873 v 1.00549 h -0.96825 l -3.9661,11.99139 z m 8.23011,0 v -1.00549 h 1.35928 v -10.9859 h -1.35928 v -1.00549 h 9.94317 v 3.27716 h -1.69443 v -2.17856 h -4.67367 v 4.61779 h 3.16543 v -1.32203 h 1.22893 v 3.74266 h -1.22893 v -1.32203 h -3.16543 v 5.08331 h 4.85987 v -2.42063 h 1.69443 v 3.51921 z m 12.08077,0 v -1.00549 h 1.35927 V 149.3173 H 262.005 v -1.00549 h 3.94748 l 6.275,9.92456 h 0.0931 v -8.91907 h -1.35928 v -1.00549 h 3.92886 v 1.00549 h -1.35927 v 11.99139 h -1.88065 l -6.98256,-11.04176 h -0.0931 v 10.03627 h 1.35927 v 1.00549 z"
         opacity="1"
         fill="#000000"
         class="undefined-text-0"
         data-fill-palette-color="primary"
         id="text-0"
         style="stroke-width:0.372403" />
    </g>
  </g>
</svg>
