<?xml version="1.0" encoding="UTF-8" standalone="no"?>
<!-- Created with Inkscape (http://www.inkscape.org/) -->

<svg
   width="512"
   height="512"
   viewBox="0 0 135.46666 135.46669"
   version="1.1"
   id="svg5"
   inkscape:version="1.1 (c68e22c387, 2021-05-23)"
   sodipodi:docname="logo-sm.svg"
   xmlns:inkscape="http://www.inkscape.org/namespaces/inkscape"
   xmlns:sodipodi="http://sodipodi.sourceforge.net/DTD/sodipodi-0.dtd"
   xmlns="http://www.w3.org/2000/svg"
   xmlns:svg="http://www.w3.org/2000/svg">
  <sodipodi:namedview
     id="namedview7"
     pagecolor="#ffffff"
     bordercolor="#666666"
     borderopacity="1.0"
     inkscape:pageshadow="2"
     inkscape:pageopacity="0.0"
     inkscape:pagecheckerboard="0"
     inkscape:document-units="mm"
     showgrid="false"
     units="px"
     inkscape:zoom="0.73406285"
     inkscape:cx="40.868435"
     inkscape:cy="382.11987"
     inkscape:window-width="1920"
     inkscape:window-height="1013"
     inkscape:window-x="-9"
     inkscape:window-y="-9"
     inkscape:window-maximized="1"
     inkscape:current-layer="g2313"
     fit-margin-top="0"
     fit-margin-left="0"
     fit-margin-right="0"
     fit-margin-bottom="0" />
  <defs
     id="defs2" />
  <g
     inkscape:label="Layer 1"
     inkscape:groupmode="layer"
     id="layer1"
     style="display:none"
     transform="translate(-31.850336,-57.800386)">
    <g
       id="tight-bounds"
       transform="matrix(0.9294287,0,0,0.9294287,146.72772,91.916526)">
      <svg
         viewBox="0 0 395.52 46.930353"
         height="46.930355"
         width="395.51999"
         version="1.1"
         id="svg894">
        <g
           id="g890">
          <svg
             viewBox="0 0 444.3069 52.719154"
             height="46.930355"
             width="395.51999"
             version="1.1"
             id="svg888">
            <g
               transform="translate(48.786899,16.290984)"
               id="g839">
              <svg
                 viewBox="0 0 395.52 20.137186"
                 height="20.137186"
                 width="395.51999"
                 version="1.1"
                 id="svg837">
                <g
                   id="g835">
                  <svg
                     viewBox="0 0 395.52 20.137186"
                     height="20.137186"
                     width="395.51999"
                     version="1.1"
                     id="svg833">
                    <g
                       id="g831">
                      <svg
                         viewBox="0 0 395.52 20.137186"
                         height="20.137186"
                         width="395.51999"
                         version="1.1"
                         id="svg829">
                        <g
                           id="g827">
                          <svg
                             width="395.51999"
                             viewBox="2.1500001 -35.5 708.98999 36.099998"
                             height="20.137186"
                             data-palette-color="#000000"
                             version="1.1"
                             id="svg825" />
                        </g>
                      </svg>
                    </g>
                  </svg>
                </g>
              </svg>
            </g>
            <g
               id="g886">
              <svg
                 viewBox="0 0 44.032993 52.719154"
                 height="52.719154"
                 width="44.032993"
                 version="1.1"
                 id="svg884">
                <g
                   id="g882">
                  <svg
                     version="1.1"
                     x="0"
                     y="0"
                     viewBox="9 2 81.017998 97"
                     enable-background="new 0 0 100 100"
                     xml:space="preserve"
                     height="52.719154"
                     width="44.032993"
                     class="icon-icon-0"
                     data-fill-palette-color="accent"
                     id="icon-0"><path
                       d="M 48.896,6.015 C 48.926,5.985 49,5.945 49,5.9 V 2.163 C 49,2.073 49.09,2 49,2 48.91,2 49,2.073 49,2.163 V 5.9 c 0,0.061 -0.18,0.104 -0.13,0.132 0.023,0.013 -0.036,0.031 -0.007,0.031 0.045,0 0.004,-0.019 0.033,-0.048 z"
                       fill="#000000"
                       data-fill-palette-color="accent"
                       id="path877" /></svg>
                </g>
              </svg>
            </g>
          </svg>
        </g>
        <defs
           id="defs892" />
      </svg>
      <rect
         width="395.51999"
         height="46.930355"
         fill="none"
         stroke="none"
         visibility="hidden"
         id="rect896"
         x="0"
         y="0" />
    </g>
  </g>
  <g
     inkscape:groupmode="layer"
     id="layer4"
     inkscape:label="Layer 3"
     style="display:inline"
     transform="translate(-31.850336,-57.800386)" />
  <g
     inkscape:groupmode="layer"
     id="layer3"
     inkscape:label="Layer 2"
     style="display:inline"
     transform="translate(-31.850336,-57.800386)">
    <g
       id="g2313"
       transform="matrix(0.42937381,0,0,0.42937381,13.013049,62.131326)">
      <g
         id="g72"
         transform="matrix(1.3953982,0,0,1.4070308,4.6244923,8.799991)"
         style="fill:#000000"
         inkscape:export-filename="D:\Coding\Vue projects\StudentInformationSystem\sis\public\icon.png"
         inkscape:export-xdpi="96"
         inkscape:export-ydpi="96">
        <g
           id="g2094"
           transform="matrix(5.0539769,0,0,5.0539769,-690.74606,-476.17985)"
           style="display:inline;fill:#000000">
          <g
             id="g2052"
             style="fill:#000000">
            <rect
               x="11"
               y="93"
               width="79"
               height="6"
               fill="#000000"
               data-fill-palette-color="accent"
               id="rect841"
               style="display:inline;fill:#000000"
               transform="matrix(0.44967443,0,0,0.44967443,142.68065,91.017177)" />
            <rect
               x="18"
               y="49"
               width="9"
               height="38"
               fill="#000000"
               data-fill-palette-color="accent"
               id="rect843"
               style="display:inline;fill:#000000"
               transform="matrix(0.44967443,0,0,0.44967443,142.68065,91.017177)" />
            <rect
               x="31"
               y="49"
               width="8"
               height="38"
               fill="#000000"
               data-fill-palette-color="accent"
               id="rect847"
               style="display:inline;fill:#000000"
               transform="matrix(0.44967443,0,0,0.44967443,142.68065,91.017177)" />
            <rect
               x="45"
               y="49"
               width="9"
               height="38"
               fill="#000000"
               data-fill-palette-color="accent"
               id="rect849"
               style="display:inline;fill:#000000"
               transform="matrix(0.44967443,0,0,0.44967443,142.68065,91.017177)" />
            <rect
               x="59"
               y="49"
               width="9"
               height="38"
               fill="#000000"
               data-fill-palette-color="accent"
               id="rect851"
               style="display:inline;fill:#000000"
               transform="matrix(0.44967443,0,0,0.44967443,142.68065,91.017177)" />
            <rect
               x="73"
               y="49"
               width="8"
               height="38"
               fill="#000000"
               data-fill-palette-color="accent"
               id="rect853"
               style="display:inline;fill:#000000"
               transform="matrix(0.44967443,0,0,0.44967443,142.68065,91.017177)" />
            <polygon
               points="49.508,30.584 9,41 90.018,41 "
               fill="#000000"
               data-fill-palette-color="accent"
               id="polygon855"
               style="display:inline;fill:#000000"
               transform="matrix(0.44967443,0,0,0.44967443,142.68065,91.017177)" />
            <rect
               x="13"
               y="88"
               width="74"
               height="3"
               fill="#000000"
               data-fill-palette-color="accent"
               id="rect857"
               style="display:inline;fill:#000000"
               transform="matrix(0.44967443,0,0,0.44967443,142.68065,91.017177)" />
            <path
               d="m 39.912,23.395 c 0.197,-3.475 1.044,-6.7 2.246,-9.117 0.427,-0.857 1.166,-1.709 1.057,-2.246 -0.17,0.076 -0.506,-0.101 -0.66,0 -3.254,2.124 -5.756,6.442 -6.21,11.23 0.938,0.295 2.413,0.054 3.567,0.133 z"
               fill="#000000"
               data-fill-palette-color="accent"
               id="path859"
               style="display:inline;fill:#000000"
               transform="matrix(0.44967443,0,0,0.44967443,142.68065,91.017177)" />
            <path
               d="m 40.572,23 c 1.277,0 2.555,0 3.832,0 0.205,-4 0.533,-8 1.718,-11 -0.616,0 -1.233,0 -1.85,0 -2.246,3 -3.584,7 -3.7,11 z"
               fill="#000000"
               data-fill-palette-color="accent"
               id="path861"
               style="display:inline;fill:#000000"
               transform="matrix(0.44967443,0,0,0.44967443,142.68065,91.017177)" />
            <path
               d="m 49.293,12 c -0.793,0 -1.586,0 -2.379,0 -1.471,3 -1.781,7 -1.85,11 1.366,0 2.73,0 4.096,0 0.307,-3 0.045,-7 0.133,-11 z"
               fill="#000000"
               data-fill-palette-color="accent"
               id="path863"
               style="display:inline;fill:#000000"
               transform="matrix(0.44967443,0,0,0.44967443,142.68065,91.017177)" />
            <path
               d="m 49.953,23.379 c 1.33,-0.08 2.984,0.158 4.096,-0.141 C 53.961,19.01 53.51,15 52.332,12 c -0.838,0 -1.674,0 -2.512,0 0.088,4 -0.174,7.854 0.133,11.379 z"
               fill="#000000"
               data-fill-palette-color="accent"
               id="path865"
               style="display:inline;fill:#000000"
               transform="matrix(0.44967443,0,0,0.44967443,142.68065,91.017177)" />
            <path
               d="m 58.541,23 c -0.197,-4 -1.582,-8 -3.566,-11 -0.662,0 -1.322,0 -1.982,0 1.131,3 1.473,7 1.719,11 1.274,0 2.552,0 3.829,0 z"
               fill="#000000"
               data-fill-palette-color="accent"
               id="path867"
               style="display:inline;fill:#000000"
               transform="matrix(0.44967443,0,0,0.44967443,142.68065,91.017177)" />
            <path
               d="m 62.637,23 c -0.076,-2 -0.998,-4.827 -2.113,-6.673 -1.078,-1.784 -2.6,-3.672 -4.625,-4.394 -0.102,0.03 -0.26,-0.144 -0.264,-0.016 2.086,2.846 3.178,7.083 3.566,11.083 1.147,0 2.291,0 3.436,0 z"
               fill="#000000"
               data-fill-palette-color="accent"
               id="path869"
               style="display:inline;fill:#000000"
               transform="matrix(0.44967443,0,0,0.44967443,142.68065,91.017177)" />
            <path
               d="M 63.693,24.179 C 61.951,23.586 58.777,24 56.561,24 c -7.123,0 -15.018,0 -21.404,0 -0.494,1 -1.239,1 -1.453,3 10.569,0 21.139,0 31.709,0 -0.45,-1 -0.825,-2.518 -1.72,-2.821 z"
               fill="#000000"
               data-fill-palette-color="accent"
               id="path871"
               style="display:inline;fill:#000000"
               transform="matrix(0.44967443,0,0,0.44967443,142.68065,91.017177)" />
            <path
               d="M 33,34 C 37.249,33.141 48.332,29.601 49.557,29.604 50.775,29.608 61.813,33.166 66,34 66.43,32.584 65.605,30.966 65.412,29.954 65.252,29.115 65.525,28 65.412,27 54.887,27 44.36,27 33.834,27 33.681,27 33.691,27.256 33.703,27.443 34.172,30.026 32.699,31.585 33,34 Z"
               fill="#000000"
               data-fill-palette-color="accent"
               id="path873"
               style="display:inline;fill:#000000"
               transform="matrix(0.44967443,0,0,0.44967443,142.68065,91.017177)" />
            <path
               d="m 49,6 c -0.055,0 -0.106,0.012 -0.16,0.015 -0.029,0.029 -0.07,0.048 -0.115,0.048 -0.028,0 -0.05,-0.018 -0.073,-0.031 C 45.501,6.362 43,11 43,11 h 12 c 0,0 -2.687,-5 -6,-5 z"
               fill="#000000"
               data-fill-palette-color="accent"
               id="path875"
               style="display:inline;fill:#000000"
               transform="matrix(0.44967443,0,0,0.44967443,142.68065,91.017177)" />
            <path
               d="m 50.315,3.33 c 0.2,0.078 0.388,0.15 0.685,0.031 V 2.136 C 50.715,2.26 50.551,2.197 50.345,2.117 50.203,2.063 50.042,2 49.821,2 49.45,2 49.173,2.18 49.05,2.277 v 1.244 c 0.059,-0.054 0.355,-0.302 0.771,-0.302 0.206,0 0.353,0.056 0.494,0.111 z"
               fill="#000000"
               data-fill-palette-color="accent"
               id="path879"
               style="display:inline;fill:#000000"
               transform="matrix(0.44967443,0,0,0.44967443,142.68065,91.017177)" />
          </g>
          <rect
             x="10"
             y="42"
             width="79"
             height="6"
             fill="#000000"
             data-fill-palette-color="accent"
             id="rect845"
             style="display:inline;fill:#000000"
             transform="matrix(0.44967443,0,0,0.44967443,142.68065,91.017177)" />
        </g>
      </g>
    </g>
  </g>
</svg>
