<svg xmlns="http://www.w3.org/2000/svg" version="1.1" xmlns:xlink="http://www.w3.org/1999/xlink" xmlns:svgjs="http://svgjs.dev/svgjs" width="1000" height="118" viewBox="0 0 1000 118"><g transform="matrix(1,0,0,1,-0.6060545425157784,-0.087428798243117)"><svg viewBox="0 0 396 47" data-background-color="#ffffff" preserveAspectRatio="xMidYMid meet" height="118" width="1000" xmlns="http://www.w3.org/2000/svg" xmlns:xlink="http://www.w3.org/1999/xlink"><g id="tight-bounds" transform="matrix(1,0,0,1,0.23999759883625416,0.03482333489344569)"><svg viewBox="0 0 395.5199999999999 46.93035333021313" height="46.93035333021313" width="395.5199999999999"><g><svg viewBox="0 0 444.3068991353243 52.71915393272688" height="46.93035333021313" width="395.5199999999999"><g transform="matrix(1,0,0,1,48.786899135324276,16.2909837782949)"><svg viewBox="0 0 395.52 20.137186376137084" height="20.137186376137084" width="395.52"><g><svg viewBox="0 0 395.52 20.137186376137084" height="20.137186376137084" width="395.52"><g><svg viewBox="0 0 395.52 20.137186376137084" height="20.137186376137084" width="395.52"><g transform="matrix(1,0,0,1,0,0)"><svg width="395.52" viewBox="2.1500000953674316 -35.5 708.989990234375 36.099998474121094" height="20.137186376137084" data-palette-color="#000000"><path d="M19.5 0.6L19.5 0.6Q15.8 0.6 13.2-0.18 10.6-0.95 8.95-2.65 7.3-4.35 6.55-7 5.8-9.65 5.8-13.4L5.8-13.4 5.8-32.2 2.15-32.2 2.15-34.9 15.4-34.9 15.4-32.2 11.75-32.2 11.75-12.9Q11.75-10.3 12.18-8.4 12.6-6.5 13.55-5.23 14.5-3.95 16.07-3.33 17.65-2.7 20-2.7L20-2.7Q24.7-2.7 26.63-5.18 28.55-7.65 28.55-12.85L28.55-12.85 28.55-32.2 24.9-32.2 24.9-34.9 35.45-34.9 35.45-32.2 31.8-32.2 31.8-13.7Q31.8-10.1 31.13-7.43 30.45-4.75 29-2.95 27.55-1.15 25.2-0.28 22.85 0.6 19.5 0.6ZM39.95 0L39.95-2.7 43.6-2.7 43.6-32.2 39.95-32.2 39.95-34.9 50.55-34.9 67.4-8.25 67.65-8.25 67.65-32.2 64-32.2 64-34.9 74.55-34.9 74.55-32.2 70.9-32.2 70.9 0 65.85 0 47.1-29.65 46.85-29.65 46.85-2.7 50.5-2.7 50.5 0 39.95 0ZM79.15 0L79.15-2.7 82.8-2.7 82.8-32.2 79.15-32.2 79.15-34.9 92.4-34.9 92.4-32.2 88.75-32.2 88.75-2.7 92.4-2.7 92.4 0 79.15 0ZM109.04 0L98.39-32.2 95.79-32.2 95.79-34.9 108.79-34.9 108.79-32.2 104.49-32.2 109.39-16.95 112.94-5.05 113.19-5.05 116.74-16.95 121.64-32.2 117.34-32.2 117.34-34.9 127.74-34.9 127.74-32.2 125.14-32.2 114.49 0 109.04 0ZM131.14 0L131.14-2.7 134.79-2.7 134.79-32.2 131.14-32.2 131.14-34.9 157.84-34.9 157.84-26.1 153.29-26.1 153.29-31.95 140.74-31.95 140.74-19.55 149.24-19.55 149.24-23.1 152.54-23.1 152.54-13.05 149.24-13.05 149.24-16.6 140.74-16.6 140.74-2.95 153.79-2.95 153.79-9.45 158.34-9.45 158.34 0 131.14 0ZM163.59 0L163.59-2.7 167.24-2.7 167.24-32.2 163.59-32.2 163.59-34.9 181.34-34.9Q183.64-34.9 185.51-34.35 187.39-33.8 188.71-32.68 190.04-31.55 190.76-29.83 191.49-28.1 191.49-25.8L191.49-25.8Q191.49-22.2 189.41-19.88 187.34-17.55 183.79-16.85L183.79-16.85 189.89-6Q190.89-4.25 192.06-3.48 193.24-2.7 194.99-2.7L194.99-2.7 195.34-2.7 195.34 0 191.49 0Q189.89 0 188.76-0.28 187.64-0.55 186.79-1.13 185.94-1.7 185.29-2.58 184.64-3.45 184.04-4.65L184.04-4.65 178.19-15.8 173.19-15.8 173.19-2.7 176.84-2.7 176.84 0 163.59 0ZM173.19-31.95L173.19-18.6 179.84-18.6Q182.49-18.6 183.91-20.1 185.34-21.6 185.34-24.1L185.34-24.1 185.34-26.45Q185.34-28.95 183.91-30.45 182.49-31.95 179.84-31.95L179.84-31.95 173.19-31.95ZM211.34 0.6L211.34 0.6Q208.24 0.6 206.31-0.45 204.39-1.5 203.69-2.95L203.69-2.95 203.44-2.95 203.44 0 198.89 0 198.89-10.25 203.44-10.25 203.44-8Q203.44-5.4 205.16-3.95 206.89-2.5 210.69-2.5L210.69-2.5Q214.69-2.5 216.49-4.15 218.29-5.8 218.29-8.55L218.29-8.55Q218.29-11 216.94-12.33 215.59-13.65 212.39-14.45L212.39-14.45 209.84-15.05Q207.39-15.6 205.44-16.5 203.49-17.4 202.14-18.7 200.79-20 200.06-21.75 199.34-23.5 199.34-25.85L199.34-25.85Q199.34-28 200.14-29.78 200.94-31.55 202.41-32.83 203.89-34.1 205.99-34.8 208.09-35.5 210.74-35.5L210.74-35.5Q213.74-35.5 215.54-34.5 217.34-33.5 218.04-32.15L218.04-32.15 218.29-32.15 218.29-34.9 222.84-34.9 222.84-24.95 218.29-24.95 218.29-27.2Q218.29-29.75 216.56-31.08 214.84-32.4 211.14-32.4L211.14-32.4Q207.69-32.4 206.01-30.88 204.34-29.35 204.34-27L204.34-27Q204.34-24.5 205.86-23.15 207.39-21.8 210.89-20.95L210.89-20.95 213.24-20.45Q218.09-19.3 220.74-16.82 223.39-14.35 223.39-10.05L223.39-10.05Q223.39-7.75 222.56-5.8 221.74-3.85 220.21-2.43 218.69-1 216.44-0.2 214.19 0.6 211.34 0.6ZM228.78 0L228.78-2.7 232.43-2.7 232.43-32.2 228.78-32.2 228.78-34.9 242.03-34.9 242.03-32.2 238.38-32.2 238.38-2.7 242.03-2.7 242.03 0 228.78 0ZM253.78 0L253.78-2.7 258.43-2.7 258.43-31.95 250.63-31.95 250.63-26.1 246.08-26.1 246.08-34.9 276.73-34.9 276.73-26.1 272.18-26.1 272.18-31.95 264.38-31.95 264.38-2.7 269.03-2.7 269.03 0 253.78 0ZM287.98 0L287.98-2.7 292.38-2.7 292.38-14 282.63-32.2 280.03-32.2 280.03-34.9 293.18-34.9 293.18-32.2 289.13-32.2 296.68-17.7 296.93-17.7 304.48-32.2 300.43-32.2 300.43-34.9 310.68-34.9 310.68-32.2 308.08-32.2 298.33-14.6 298.33-2.7 302.73-2.7 302.73 0 287.98 0ZM341.72-2.5L341.72-2.5Q346.02-2.5 348.52-5.38 351.02-8.25 351.02-13.4L351.02-13.4 351.02-21.5Q351.02-26.65 348.52-29.53 346.02-32.4 341.72-32.4L341.72-32.4Q337.42-32.4 334.92-29.53 332.42-26.65 332.42-21.5L332.42-21.5 332.42-13.4Q332.42-8.25 334.92-5.38 337.42-2.5 341.72-2.5ZM341.72 0.6L341.72 0.6Q338.22 0.6 335.32-0.63 332.42-1.85 330.32-4.17 328.22-6.5 327.05-9.85 325.87-13.2 325.87-17.45L325.87-17.45Q325.87-21.7 327.05-25.05 328.22-28.4 330.32-30.73 332.42-33.05 335.32-34.27 338.22-35.5 341.72-35.5L341.72-35.5Q345.22-35.5 348.12-34.27 351.02-33.05 353.12-30.73 355.22-28.4 356.4-25.05 357.57-21.7 357.57-17.45L357.57-17.45Q357.57-13.2 356.4-9.85 355.22-6.5 353.12-4.17 351.02-1.85 348.12-0.63 345.22 0.6 341.72 0.6ZM362.57 0L362.57-2.7 366.22-2.7 366.22-32.2 362.57-32.2 362.57-34.9 389.27-34.9 389.27-26.1 384.72-26.1 384.72-31.95 372.17-31.95 372.17-18.8 380.67-18.8 380.67-22.35 383.97-22.35 383.97-12.3 380.67-12.3 380.67-15.85 372.17-15.85 372.17-2.7 376.82-2.7 376.82 0 362.57 0ZM405.77 0L405.77-2.7 409.42-2.7 409.42-32.2 405.77-32.2 405.77-34.9 416.37-34.9 433.22-8.25 433.47-8.25 433.47-32.2 429.82-32.2 429.82-34.9 440.37-34.9 440.37-32.2 436.72-32.2 436.72 0 431.67 0 412.92-29.65 412.67-29.65 412.67-2.7 416.32-2.7 416.32 0 405.77 0ZM444.96 0L444.96-2.7 448.61-2.7 448.61-32.2 444.96-32.2 444.96-34.9 471.66-34.9 471.66-26.1 467.11-26.1 467.11-31.95 454.56-31.95 454.56-19.55 463.06-19.55 463.06-23.1 466.36-23.1 466.36-13.05 463.06-13.05 463.06-16.6 454.56-16.6 454.56-2.95 467.61-2.95 467.61-9.45 472.16-9.45 472.16 0 444.96 0ZM486.31 0L478.31-32.2 475.71-32.2 475.71-34.9 488.66-34.9 488.66-32.2 484.41-32.2 490.46-5.95 490.71-5.95 498.11-34.9 503.51-34.9 510.91-5.95 511.16-5.95 517.21-32.2 512.96-32.2 512.96-34.9 523.36-34.9 523.36-32.2 520.76-32.2 512.76 0 507.01 0 499.66-27.5 499.41-27.5 492.06 0 486.31 0ZM538.41 0L538.41-2.7 542.06-2.7 542.06-32.2 538.41-32.2 538.41-34.9 551.66-34.9 551.66-32.2 548-32.2 548-19.35 563.86-19.35 563.86-32.2 560.21-32.2 560.21-34.9 573.46-34.9 573.46-32.2 569.81-32.2 569.81-2.7 573.46-2.7 573.46 0 560.21 0 560.21-2.7 563.86-2.7 563.86-16.4 548-16.4 548-2.7 551.66-2.7 551.66 0 538.41 0ZM576.65 0L576.65-2.7 579.25-2.7 590.35-34.9 596.05-34.9 607.15-2.7 609.75-2.7 609.75 0 596.7 0 596.7-2.7 601-2.7 598.2-11.05 585.55-11.05 582.75-2.7 587.05-2.7 587.05 0 576.65 0ZM591.75-30.2L586.35-13.9 597.4-13.9 592-30.2 591.75-30.2ZM622 0L611.35-32.2 608.75-32.2 608.75-34.9 621.75-34.9 621.75-32.2 617.45-32.2 622.35-16.95 625.9-5.05 626.15-5.05 629.7-16.95 634.6-32.2 630.3-32.2 630.3-34.9 640.7-34.9 640.7-32.2 638.1-32.2 627.45 0 622 0ZM644.1 0L644.1-2.7 647.75-2.7 647.75-32.2 644.1-32.2 644.1-34.9 670.8-34.9 670.8-26.1 666.25-26.1 666.25-31.95 653.7-31.95 653.7-19.55 662.2-19.55 662.2-23.1 665.5-23.1 665.5-13.05 662.2-13.05 662.2-16.6 653.7-16.6 653.7-2.95 666.75-2.95 666.75-9.45 671.3-9.45 671.3 0 644.1 0ZM676.54 0L676.54-2.7 680.19-2.7 680.19-32.2 676.54-32.2 676.54-34.9 687.14-34.9 703.99-8.25 704.24-8.25 704.24-32.2 700.59-32.2 700.59-34.9 711.14-34.9 711.14-32.2 707.49-32.2 707.49 0 702.44 0 683.69-29.65 683.44-29.65 683.44-2.7 687.09-2.7 687.09 0 676.54 0Z" opacity="1" transform="matrix(1,0,0,1,0,0)" fill="#000000" class="undefined-text-0" data-fill-palette-color="primary" id="text-0"></path></svg></g></svg></g></svg></g></svg></g><g><svg viewBox="0 0 44.03299272439134 52.71915393272688" height="52.71915393272688" width="44.03299272439134"><g><svg xmlns="http://www.w3.org/2000/svg" xmlns:xlink="http://www.w3.org/1999/xlink" version="1.1" x="0" y="0" viewBox="9 2 81.01799774169922 97" enable-background="new 0 0 100 100" xml:space="preserve" height="52.71915393272688" width="44.03299272439134" class="icon-icon-0" data-fill-palette-color="accent" id="icon-0"><rect x="11" y="93" width="79" height="6" fill="#000000" data-fill-palette-color="accent"></rect><rect x="18" y="49" width="9" height="38" fill="#000000" data-fill-palette-color="accent"></rect><rect x="10" y="42" width="79" height="6" fill="#000000" data-fill-palette-color="accent"></rect><rect x="31" y="49" width="8" height="38" fill="#000000" data-fill-palette-color="accent"></rect><rect x="45" y="49" width="9" height="38" fill="#000000" data-fill-palette-color="accent"></rect><rect x="59" y="49" width="9" height="38" fill="#000000" data-fill-palette-color="accent"></rect><rect x="73" y="49" width="8" height="38" fill="#000000" data-fill-palette-color="accent"></rect><polygon points="49.508,30.584 9,41 90.018,41 " fill="#000000" data-fill-palette-color="accent"></polygon><rect x="13" y="88" width="74" height="3" fill="#000000" data-fill-palette-color="accent"></rect><path d="M39.912 23.395c0.197-3.475 1.044-6.7 2.246-9.117 0.427-0.857 1.166-1.709 1.057-2.246-0.17 0.076-0.506-0.101-0.66 0-3.254 2.124-5.756 6.442-6.21 11.23C37.283 23.557 38.758 23.316 39.912 23.395z" fill="#000000" data-fill-palette-color="accent"></path><path d="M40.572 23c1.277 0 2.555 0 3.832 0 0.205-4 0.533-8 1.718-11-0.616 0-1.233 0-1.85 0C42.026 15 40.688 19 40.572 23z" fill="#000000" data-fill-palette-color="accent"></path><path d="M49.293 12c-0.793 0-1.586 0-2.379 0-1.471 3-1.781 7-1.85 11 1.366 0 2.73 0 4.096 0C49.467 20 49.205 16 49.293 12z" fill="#000000" data-fill-palette-color="accent"></path><path d="M49.953 23.379c1.33-0.08 2.984 0.158 4.096-0.141C53.961 19.01 53.51 15 52.332 12c-0.838 0-1.674 0-2.512 0C49.908 16 49.646 19.854 49.953 23.379z" fill="#000000" data-fill-palette-color="accent"></path><path d="M58.541 23c-0.197-4-1.582-8-3.566-11-0.662 0-1.322 0-1.982 0 1.131 3 1.473 7 1.719 11C55.986 23 57.264 23 58.541 23z" fill="#000000" data-fill-palette-color="accent"></path><path d="M62.637 23c-0.076-2-0.998-4.827-2.113-6.673-1.078-1.784-2.6-3.672-4.625-4.394-0.102 0.03-0.26-0.144-0.264-0.016C57.721 14.763 58.813 19 59.201 23 60.348 23 61.492 23 62.637 23z" fill="#000000" data-fill-palette-color="accent"></path><path d="M63.693 24.179C61.951 23.586 58.777 24 56.561 24c-7.123 0-15.018 0-21.404 0-0.494 1-1.239 1-1.453 3 10.569 0 21.139 0 31.709 0C64.963 26 64.588 24.482 63.693 24.179z" fill="#000000" data-fill-palette-color="accent"></path><path d="M33 34c4.249-0.859 15.332-4.399 16.557-4.396C50.775 29.608 61.813 33.166 66 34c0.43-1.416-0.395-3.034-0.588-4.046-0.16-0.839 0.113-1.954 0-2.954-10.525 0-21.052 0-31.578 0-0.153 0-0.143 0.256-0.131 0.443C34.172 30.026 32.699 31.585 33 34z" fill="#000000" data-fill-palette-color="accent"></path><path d="M49 6c-0.055 0-0.106 0.012-0.16 0.015-0.029 0.029-0.07 0.048-0.115 0.048-0.028 0-0.05-0.018-0.073-0.031C45.501 6.362 43 11 43 11h12C55 11 52.313 6 49 6z" fill="#000000" data-fill-palette-color="accent"></path><path d="M48.896 6.015C48.926 5.985 49 5.945 49 5.9V2.163C49 2.073 49.09 2 49 2s0 0.073 0 0.163V5.9c0 0.061-0.18 0.104-0.13 0.132 0.023 0.013-0.036 0.031-0.007 0.031C48.908 6.063 48.867 6.044 48.896 6.015z" fill="#000000" data-fill-palette-color="accent"></path><path d="M50.315 3.33C50.515 3.408 50.703 3.48 51 3.361V2.136c-0.285 0.124-0.449 0.061-0.655-0.019C50.203 2.063 50.042 2 49.821 2c-0.371 0-0.648 0.18-0.771 0.277v1.244c0.059-0.054 0.355-0.302 0.771-0.302C50.027 3.219 50.174 3.275 50.315 3.33z" fill="#000000" data-fill-palette-color="accent"></path></svg></g></svg></g></svg></g><defs></defs></svg><rect width="395.5199999999999" height="46.93035333021313" fill="none" stroke="none" visibility="hidden"></rect></g></svg></g></svg>