<?xml version="1.0" encoding="UTF-8" standalone="no"?>
<!-- Created with Inkscape (http://www.inkscape.org/) -->

<svg
   width="525.76746"
   height="395.49921"
   viewBox="0 0 139.1093 104.64251"
   version="1.1"
   id="svg5"
   inkscape:version="1.1 (c68e22c387, 2021-05-23)"
   sodipodi:docname="logo-sidebar.svg"
   xmlns:inkscape="http://www.inkscape.org/namespaces/inkscape"
   xmlns:sodipodi="http://sodipodi.sourceforge.net/DTD/sodipodi-0.dtd"
   xmlns="http://www.w3.org/2000/svg"
   xmlns:svg="http://www.w3.org/2000/svg">
  <sodipodi:namedview
     id="namedview7"
     pagecolor="#ffffff"
     bordercolor="#666666"
     borderopacity="1.0"
     inkscape:pageshadow="2"
     inkscape:pageopacity="0.0"
     inkscape:pagecheckerboard="0"
     inkscape:document-units="mm"
     showgrid="false"
     units="px"
     inkscape:zoom="1.4681256"
     inkscape:cx="264.9637"
     inkscape:cy="236.01522"
     inkscape:window-width="1920"
     inkscape:window-height="1013"
     inkscape:window-x="-9"
     inkscape:window-y="-9"
     inkscape:window-maximized="1"
     inkscape:current-layer="g72"
     fit-margin-top="0"
     fit-margin-left="0"
     fit-margin-right="0"
     fit-margin-bottom="0" />
  <defs
     id="defs2" />
  <g
     inkscape:label="Layer 1"
     inkscape:groupmode="layer"
     id="layer1"
     style="display:none"
     transform="translate(-4.8051732,-57.135196)">
    <g
       id="tight-bounds"
       transform="matrix(0.9294287,0,0,0.9294287,146.72772,91.916526)">
      <svg
         viewBox="0 0 395.52 46.930353"
         height="46.930355"
         width="395.51999"
         version="1.1"
         id="svg894">
        <g
           id="g890">
          <svg
             viewBox="0 0 444.3069 52.719154"
             height="46.930355"
             width="395.51999"
             version="1.1"
             id="svg888">
            <g
               transform="translate(48.786899,16.290984)"
               id="g839">
              <svg
                 viewBox="0 0 395.52 20.137186"
                 height="20.137186"
                 width="395.51999"
                 version="1.1"
                 id="svg837">
                <g
                   id="g835">
                  <svg
                     viewBox="0 0 395.52 20.137186"
                     height="20.137186"
                     width="395.51999"
                     version="1.1"
                     id="svg833">
                    <g
                       id="g831">
                      <svg
                         viewBox="0 0 395.52 20.137186"
                         height="20.137186"
                         width="395.51999"
                         version="1.1"
                         id="svg829">
                        <g
                           id="g827">
                          <svg
                             width="395.51999"
                             viewBox="2.1500001 -35.5 708.98999 36.099998"
                             height="20.137186"
                             data-palette-color="#000000"
                             version="1.1"
                             id="svg825" />
                        </g>
                      </svg>
                    </g>
                  </svg>
                </g>
              </svg>
            </g>
            <g
               id="g886">
              <svg
                 viewBox="0 0 44.032993 52.719154"
                 height="52.719154"
                 width="44.032993"
                 version="1.1"
                 id="svg884">
                <g
                   id="g882">
                  <svg
                     version="1.1"
                     x="0"
                     y="0"
                     viewBox="9 2 81.017998 97"
                     enable-background="new 0 0 100 100"
                     xml:space="preserve"
                     height="52.719154"
                     width="44.032993"
                     class="icon-icon-0"
                     data-fill-palette-color="accent"
                     id="icon-0"><path
                       d="M 48.896,6.015 C 48.926,5.985 49,5.945 49,5.9 V 2.163 C 49,2.073 49.09,2 49,2 48.91,2 49,2.073 49,2.163 V 5.9 c 0,0.061 -0.18,0.104 -0.13,0.132 0.023,0.013 -0.036,0.031 -0.007,0.031 0.045,0 0.004,-0.019 0.033,-0.048 z"
                       fill="#000000"
                       data-fill-palette-color="accent"
                       id="path877" /></svg>
                </g>
              </svg>
            </g>
          </svg>
        </g>
        <defs
           id="defs892" />
      </svg>
      <rect
         width="395.51999"
         height="46.930355"
         fill="none"
         stroke="none"
         visibility="hidden"
         id="rect896"
         x="0"
         y="0" />
    </g>
  </g>
  <g
     inkscape:groupmode="layer"
     id="layer4"
     inkscape:label="Layer 3"
     style="display:inline"
     transform="translate(-4.8051732,-57.135196)" />
  <g
     inkscape:groupmode="layer"
     id="layer3"
     inkscape:label="Layer 2"
     style="display:inline"
     transform="translate(-4.8051732,-57.135196)">
    <g
       id="g2313"
       transform="matrix(0.42937381,0,0,0.42937381,13.013049,62.131326)">
      <g
         id="g72"
         style="fill:#ffffff">
        <g
           id="g2094"
           transform="matrix(5.0539769,0,0,5.0539769,-690.74606,-476.17985)"
           style="display:inline;fill:#000000;fill-opacity:1">
          <g
             id="g2052"
             style="fill:#000000;fill-opacity:1">
            <rect
               x="11"
               y="93"
               width="79"
               height="6"
               fill="#000000"
               data-fill-palette-color="accent"
               id="rect841"
               style="display:inline;fill:#000000;fill-opacity:1"
               transform="matrix(0.44967443,0,0,0.44967443,142.68065,91.017177)" />
            <rect
               x="18"
               y="49"
               width="9"
               height="38"
               fill="#000000"
               data-fill-palette-color="accent"
               id="rect843"
               style="display:inline;fill:#000000;fill-opacity:1"
               transform="matrix(0.44967443,0,0,0.44967443,142.68065,91.017177)" />
            <rect
               x="31"
               y="49"
               width="8"
               height="38"
               fill="#000000"
               data-fill-palette-color="accent"
               id="rect847"
               style="display:inline;fill:#000000;fill-opacity:1"
               transform="matrix(0.44967443,0,0,0.44967443,142.68065,91.017177)" />
            <rect
               x="45"
               y="49"
               width="9"
               height="38"
               fill="#000000"
               data-fill-palette-color="accent"
               id="rect849"
               style="display:inline;fill:#000000;fill-opacity:1"
               transform="matrix(0.44967443,0,0,0.44967443,142.68065,91.017177)" />
            <rect
               x="59"
               y="49"
               width="9"
               height="38"
               fill="#000000"
               data-fill-palette-color="accent"
               id="rect851"
               style="display:inline;fill:#000000;fill-opacity:1"
               transform="matrix(0.44967443,0,0,0.44967443,142.68065,91.017177)" />
            <rect
               x="73"
               y="49"
               width="8"
               height="38"
               fill="#000000"
               data-fill-palette-color="accent"
               id="rect853"
               style="display:inline;fill:#000000;fill-opacity:1"
               transform="matrix(0.44967443,0,0,0.44967443,142.68065,91.017177)" />
            <polygon
               points="90.018,41 49.508,30.584 9,41 "
               fill="#000000"
               data-fill-palette-color="accent"
               id="polygon855"
               style="display:inline;fill:#000000;fill-opacity:1"
               transform="matrix(0.44967443,0,0,0.44967443,142.68065,91.017177)" />
            <rect
               x="13"
               y="88"
               width="74"
               height="3"
               fill="#000000"
               data-fill-palette-color="accent"
               id="rect857"
               style="display:inline;fill:#000000;fill-opacity:1"
               transform="matrix(0.44967443,0,0,0.44967443,142.68065,91.017177)" />
            <path
               d="m 39.912,23.395 c 0.197,-3.475 1.044,-6.7 2.246,-9.117 0.427,-0.857 1.166,-1.709 1.057,-2.246 -0.17,0.076 -0.506,-0.101 -0.66,0 -3.254,2.124 -5.756,6.442 -6.21,11.23 0.938,0.295 2.413,0.054 3.567,0.133 z"
               fill="#000000"
               data-fill-palette-color="accent"
               id="path859"
               style="display:inline;fill:#000000;fill-opacity:1"
               transform="matrix(0.44967443,0,0,0.44967443,142.68065,91.017177)" />
            <path
               d="m 40.572,23 c 1.277,0 2.555,0 3.832,0 0.205,-4 0.533,-8 1.718,-11 -0.616,0 -1.233,0 -1.85,0 -2.246,3 -3.584,7 -3.7,11 z"
               fill="#000000"
               data-fill-palette-color="accent"
               id="path861"
               style="display:inline;fill:#000000;fill-opacity:1"
               transform="matrix(0.44967443,0,0,0.44967443,142.68065,91.017177)" />
            <path
               d="m 49.293,12 c -0.793,0 -1.586,0 -2.379,0 -1.471,3 -1.781,7 -1.85,11 1.366,0 2.73,0 4.096,0 0.307,-3 0.045,-7 0.133,-11 z"
               fill="#000000"
               data-fill-palette-color="accent"
               id="path863"
               style="display:inline;fill:#000000;fill-opacity:1"
               transform="matrix(0.44967443,0,0,0.44967443,142.68065,91.017177)" />
            <path
               d="m 49.953,23.379 c 1.33,-0.08 2.984,0.158 4.096,-0.141 C 53.961,19.01 53.51,15 52.332,12 c -0.838,0 -1.674,0 -2.512,0 0.088,4 -0.174,7.854 0.133,11.379 z"
               fill="#000000"
               data-fill-palette-color="accent"
               id="path865"
               style="display:inline;fill:#000000;fill-opacity:1"
               transform="matrix(0.44967443,0,0,0.44967443,142.68065,91.017177)" />
            <path
               d="m 58.541,23 c -0.197,-4 -1.582,-8 -3.566,-11 -0.662,0 -1.322,0 -1.982,0 1.131,3 1.473,7 1.719,11 1.274,0 2.552,0 3.829,0 z"
               fill="#000000"
               data-fill-palette-color="accent"
               id="path867"
               style="display:inline;fill:#000000;fill-opacity:1"
               transform="matrix(0.44967443,0,0,0.44967443,142.68065,91.017177)" />
            <path
               d="m 62.637,23 c -0.076,-2 -0.998,-4.827 -2.113,-6.673 -1.078,-1.784 -2.6,-3.672 -4.625,-4.394 -0.102,0.03 -0.26,-0.144 -0.264,-0.016 2.086,2.846 3.178,7.083 3.566,11.083 1.147,0 2.291,0 3.436,0 z"
               fill="#000000"
               data-fill-palette-color="accent"
               id="path869"
               style="display:inline;fill:#000000;fill-opacity:1"
               transform="matrix(0.44967443,0,0,0.44967443,142.68065,91.017177)" />
            <path
               d="M 63.693,24.179 C 61.951,23.586 58.777,24 56.561,24 c -7.123,0 -15.018,0 -21.404,0 -0.494,1 -1.239,1 -1.453,3 10.569,0 21.139,0 31.709,0 -0.45,-1 -0.825,-2.518 -1.72,-2.821 z"
               fill="#000000"
               data-fill-palette-color="accent"
               id="path871"
               style="display:inline;fill:#000000;fill-opacity:1"
               transform="matrix(0.44967443,0,0,0.44967443,142.68065,91.017177)" />
            <path
               d="M 33,34 C 37.249,33.141 48.332,29.601 49.557,29.604 50.775,29.608 61.813,33.166 66,34 66.43,32.584 65.605,30.966 65.412,29.954 65.252,29.115 65.525,28 65.412,27 54.887,27 44.36,27 33.834,27 33.681,27 33.691,27.256 33.703,27.443 34.172,30.026 32.699,31.585 33,34 Z"
               fill="#000000"
               data-fill-palette-color="accent"
               id="path873"
               style="display:inline;fill:#000000;fill-opacity:1"
               transform="matrix(0.44967443,0,0,0.44967443,142.68065,91.017177)" />
            <path
               d="m 49,6 c -0.055,0 -0.106,0.012 -0.16,0.015 -0.029,0.029 -0.07,0.048 -0.115,0.048 -0.028,0 -0.05,-0.018 -0.073,-0.031 C 45.501,6.362 43,11 43,11 h 12 c 0,0 -2.687,-5 -6,-5 z"
               fill="#000000"
               data-fill-palette-color="accent"
               id="path875"
               style="display:inline;fill:#000000;fill-opacity:1"
               transform="matrix(0.44967443,0,0,0.44967443,142.68065,91.017177)" />
            <path
               d="m 50.315,3.33 c 0.2,0.078 0.388,0.15 0.685,0.031 V 2.136 C 50.715,2.26 50.551,2.197 50.345,2.117 50.203,2.063 50.042,2 49.821,2 49.45,2 49.173,2.18 49.05,2.277 v 1.244 c 0.059,-0.054 0.355,-0.302 0.771,-0.302 0.206,0 0.353,0.056 0.494,0.111 z"
               fill="#000000"
               data-fill-palette-color="accent"
               id="path879"
               style="display:inline;fill:#000000;fill-opacity:1"
               transform="matrix(0.44967443,0,0,0.44967443,142.68065,91.017177)" />
          </g>
          <rect
             x="10"
             y="42"
             width="79"
             height="6"
             fill="#000000"
             data-fill-palette-color="accent"
             id="rect845"
             style="display:inline;fill:#000000;fill-opacity:1"
             transform="matrix(0.44967443,0,0,0.44967443,142.68065,91.017177)" />
        </g>
        <path
           d="m -11.187623,232.07369 v 0 q -1.690761,0 -2.878863,-0.35644 -1.188102,-0.35186 -1.942092,-1.1287 -0.753989,-0.77684 -1.096718,-1.98779 -0.342714,-1.21095 -0.342714,-2.92456 v 0 -8.59089 h -1.667911 v -1.23379 h 6.054755 v 1.23379 h -1.667911 v 8.81937 q 0,1.18812 0.196487,2.05634 0.191925,0.86823 0.626036,1.44858 0.434112,0.58491 1.151545,0.86822 0.721997,0.28789 1.795866,0.28789 v 0 q 2.1477226,0 3.0296532,-1.13326 0.8773807,-1.1287 0.8773807,-3.50492 v 0 -8.84222 h -1.6679123 v -1.23379 h 4.8209548 v 1.23379 h -1.667927 v 8.45381 q 0,1.64506 -0.3061571,2.86516 -0.3107365,1.22466 -0.9733284,2.0472 -0.6625919,0.82252 -1.7364597,1.22008 -1.0738691,0.40213 -2.6046842,0.40213 z m 9.3448807,-0.27419 v -1.23379 h 1.66791231 v -13.4804 H -1.8427423 v -1.23379 h 4.843804 l 7.6998173,12.17805 h 0.114252 V 217.08531 H 9.1472187 v -1.23379 h 4.8209543 v 1.23379 H 12.300261 V 231.7995 H 9.9926037 L 1.4245484,218.25057 H 1.3102966 v 12.31514 h 1.6679122 v 1.23379 z m 17.9129363,0 v -1.23379 h 1.667912 v -13.4804 h -1.667912 v -1.23379 h 6.054739 v 1.23379 h -1.667911 v 13.4804 h 1.667911 v 1.23379 z m 13.658594,0 -4.866638,-14.71419 h -1.188103 v -1.23379 h 5.940509 v 1.23379 h -1.964941 l 2.23912,6.96868 1.622214,5.43786 H 31.6252 l 1.622228,-5.43786 2.239106,-6.96868 h -1.964926 v -1.23379 h 4.752406 v 1.23379 h -1.188101 l -4.866655,14.71419 z m 10.09887,0 v -1.23379 h 1.667913 v -13.4804 h -1.667913 v -1.23379 h 12.200908 v 4.02128 h -2.079188 v -2.67323 h -5.734876 v 5.66632 h 3.884182 v -1.62222 h 1.50798 v 4.59248 h -1.50798 v -1.62221 h -3.884182 v 6.23754 h 5.963356 v -2.97027 h 2.079188 v 4.31829 z m 14.828441,0 v -1.23379 h 1.667913 v -13.4804 h -1.667913 v -1.23379 h 8.11108 q 1.051019,0 1.905536,0.25132 0.859095,0.25133 1.462281,0.76314 0.607764,0.51636 0.936771,1.30233 0.333585,0.79055 0.333585,1.84156 v 0 q 0,1.64506 -0.950478,2.70523 -0.945915,1.06471 -2.568142,1.38458 v 0 l 2.787479,4.95805 q 0.456962,0.79969 0.991614,1.15154 0.539201,0.35644 1.338891,0.35644 v 0 h 0.159931 v 1.23379 h -1.759295 q -0.731141,0 -1.247507,-0.12793 -0.511803,-0.12338 -0.900215,-0.38841 -0.388427,-0.26047 -0.685441,-0.66259 -0.297029,-0.39756 -0.571209,-0.94592 v 0 l -2.673233,-5.09513 h -2.284804 v 5.9862 h 1.667912 v 1.2338 z m 4.386844,-14.59993 V 223.3 h 3.038795 q 1.21095,0 1.859836,-0.68544 0.653449,-0.68544 0.653449,-1.82785 v 0 -1.07386 q 0,-1.14241 -0.653449,-1.82785 -0.648886,-0.68543 -1.859836,-0.68543 v 0 z m 17.433111,14.87412 v 0 q -1.416583,0 -2.298527,-0.47982 -0.877366,-0.4798 -1.197229,-1.14239 v 0 h -0.114252 v 1.34802 h -2.079174 v -4.68387 h 2.079174 v 1.02817 q 0,1.18811 0.785983,1.85071 0.790546,0.6626 2.526991,0.6626 v 0 q 1.827859,0 2.650384,-0.75399 0.822538,-0.754 0.822538,-2.01064 v 0 q 0,-1.11955 -0.616907,-1.72733 -0.616894,-0.60317 -2.079175,-0.96875 v 0 l -1.165248,-0.27417 q -1.119553,-0.25133 -2.01064,-0.66261 -0.891073,-0.41126 -1.507966,-1.00531 -0.616907,-0.59406 -0.950493,-1.39374 -0.329007,-0.79967 -0.329007,-1.87355 v 0 q 0,-0.98247 0.365563,-1.79586 0.365577,-0.80882 1.037312,-1.39374 0.6763,-0.58033 1.635921,-0.90021 0.95962,-0.31988 2.170572,-0.31988 v 0 q 1.370898,0 2.193422,0.45698 0.822538,0.45696 1.142401,1.07385 v 0 h 0.114252 v -1.25664 h 2.079177 v 4.54677 h -2.07918 v -1.02816 q 0,-1.16527 -0.790547,-1.77302 -0.785983,-0.60317 -2.476744,-0.60317 v 0 q -1.576513,0 -2.344211,0.69456 -0.763132,0.69916 -0.763132,1.77302 v 0 q 0,1.14241 0.694584,1.7593 0.699163,0.6169 2.298527,1.00532 v 0 l 1.073853,0.22848 q 2.216272,0.52552 3.427226,1.65877 1.21095,1.1287 1.21095,3.09365 v 0 q 0,1.05101 -0.379269,1.94208 -0.374721,0.89108 -1.073869,1.53997 -0.694584,0.65346 -1.722757,1.01902 -1.028155,0.36558 -2.330503,0.36558 z m 7.969436,-0.27419 v -1.23379 h 1.667911 v -13.4804 H 84.44549 v -1.23379 h 6.054735 v 1.23379 h -1.667906 v 13.4804 h 1.667906 v 1.23379 z m 11.424055,0 v -1.23379 h 2.124869 v -13.36614 h -3.564299 v 2.67323 h -2.079172 v -4.02128 h 14.005907 v 4.02128 h -2.0792 v -2.67323 h -3.5643 v 13.36614 h 2.12487 v 1.23379 z m 15.628115,0 v -1.23379 h 2.01065 v -5.16367 l -4.4554,-8.31673 h -1.1881 v -1.23379 h 6.00905 v 1.23379 h -1.85069 l 3.45007,6.62597 h 0.11424 l 3.45007,-6.62597 h -1.85069 v -1.23379 h 4.68385 v 1.23379 h -1.1881 l -4.45539,8.04254 v 5.43786 h 2.01064 v 1.23379 z m 24.55717,-1.14239 v 0 q 1.96494,0 3.10735,-1.31606 1.14239,-1.31148 1.14239,-3.66485 v 0 -3.70138 q 0,-2.35336 -1.14239,-3.66941 -1.14241,-1.31147 -3.10735,-1.31147 v 0 q -1.96494,0 -3.10734,1.31147 -1.14242,1.31605 -1.14242,3.66941 v 0 3.70138 q 0,2.35337 1.14242,3.66485 1.1424,1.31606 3.10734,1.31606 z m 0,1.41658 v 0 q -1.59938,0 -2.92456,-0.56207 -1.3252,-0.55749 -2.28482,-1.61765 -0.95962,-1.06472 -1.49427,-2.59554 -0.5392,-1.53082 -0.5392,-3.47292 v 0 q 0,-1.9421 0.5392,-3.47291 0.53465,-1.53083 1.49427,-2.59555 0.95962,-1.06015 2.28482,-1.61765 1.32518,-0.56207 2.92456,-0.56207 v 0 q 1.59936,0 2.92457,0.56207 1.32517,0.5575 2.2848,1.61765 0.95962,1.06472 1.49883,2.59555 0.53466,1.53081 0.53466,3.47291 v 0 q 0,1.9421 -0.53466,3.47292 -0.53921,1.53082 -1.49883,2.59554 -0.95963,1.06016 -2.2848,1.61765 -1.32521,0.56207 -2.92457,0.56207 z m 9.52766,-0.27419 v -1.23379 h 1.66791 v -13.4804 h -1.66791 v -1.23379 h 12.2009 v 4.02128 h -2.07918 v -2.67323 h -5.73487 v 6.00905 h 3.88418 v -1.62223 h 1.50796 v 4.59248 h -1.50796 v -1.62221 h -3.88418 v 6.00905 h 2.12487 v 1.23379 z m 19.74078,0 v -1.23379 h 1.66791 v -13.4804 h -1.66791 v -1.23379 h 4.84381 l 7.69982,12.17805 h 0.11424 v -10.94426 h -1.66791 v -1.23379 h 4.82096 v 1.23379 h -1.66791 v 14.71419 h -2.30766 l -8.56806,-13.54893 h -0.11424 v 12.31514 h 1.66791 v 1.23379 z m 17.90836,0 v -1.23379 h 1.66791 v -13.4804 h -1.66791 v -1.23379 h 12.20091 v 4.02128 h -2.07919 v -2.67323 h -5.73487 v 5.66632 h 3.88418 v -1.62222 h 1.50797 v 4.59248 h -1.50797 v -1.62221 h -3.88418 v 6.23754 h 5.96335 v -2.97027 h 2.07919 v 4.31829 z m 18.89541,0 -3.65571,-14.71419 h -1.1881 v -1.23379 h 5.91766 v 1.23379 h -1.94209 l 2.76462,11.99527 h 0.11424 l 3.38153,-13.22906 h 2.4676 l 3.38152,13.22906 h 0.11424 l 2.76462,-11.99527 h -1.9421 v -1.23379 h 4.7524 v 1.23379 h -1.18806 l -3.65571,14.71419 h -2.62753 l -3.35868,-12.56647 h -0.11424 l -3.35867,12.56647 z m 23.80774,0 v -1.23379 h 1.66791 v -13.4804 h -1.66791 v -1.23379 h 6.05476 v 1.23379 h -1.6725 v 5.87198 h 7.24743 v -5.87198 h -1.66791 v -1.23379 h 6.05475 v 1.23379 h -1.66792 v 13.4804 h 1.66792 v 1.23379 h -6.05475 v -1.23379 h 1.66791 v -6.26039 h -7.24743 v 6.26039 h 1.6725 v 1.23379 z m 17.47425,0 v -1.23379 h 1.1881 l 5.07229,-14.71419 h 2.60467 l 5.07229,14.71419 h 1.1881 v 1.23379 h -5.96335 v -1.23379 h 1.96494 l -1.27951,-3.81564 h -5.78057 l -1.27949,3.81564 h 1.96493 v 1.23379 z m 6.90013,-13.80027 -2.4676,7.44849 h 5.04943 l -2.46759,-7.44849 z m 13.82312,13.80027 -4.86665,-14.71419 h -1.18811 v -1.23379 h 5.94051 v 1.23379 h -1.96495 l 2.23912,6.96868 1.62222,5.43786 h 0.11424 l 1.62221,-5.43786 2.23912,-6.96868 h -1.96494 v -1.23379 h 4.75241 v 1.23379 h -1.1881 l -4.86666,14.71419 z m 10.09886,0 v -1.23379 h 1.66793 v -13.4804 h -1.66793 v -1.23379 h 12.2009 v 4.02128 h -2.07917 v -2.67323 h -5.73489 v 5.66632 h 3.88418 v -1.62222 h 1.50798 v 4.59248 h -1.50798 v -1.62221 h -3.88418 v 6.23754 h 5.96337 v -2.97027 h 2.07917 v 4.31829 z m 14.82387,0 v -1.23379 h 1.66791 v -13.4804 h -1.66791 v -1.23379 h 4.8438 l 7.69982,12.17805 h 0.11424 v -10.94426 h -1.66792 v -1.23379 h 4.82096 v 1.23379 H 303.198 v 14.71419 h -2.30768 l -8.56804,-13.54893 h -0.11424 v 12.31514 h 1.66791 v 1.23379 z"
           opacity="1"
           fill="#000000"
           class="undefined-text-0"
           data-fill-palette-color="primary"
           id="text-0"
           style="stroke-width:0.456962;fill:#000000;fill-opacity:1" />
      </g>
    </g>
  </g>
</svg>
